<?xml version="1.0" encoding="UTF-8"?>
<svg id="Layer_2" data-name="Layer 2" xmlns="http://www.w3.org/2000/svg" viewBox="0 0 580.01 596.41">
  <defs>
    <style>
      .cls-1 {
        fill: #27343a;
      }
    </style>
  </defs>
  <g id="Layer_1-2" data-name="Layer 1">
    <g>
      <path class="cls-1" d="M185.26,1.5c1.97,0,3.57,1.6,3.57,3.57v34.52c0,1.66-.6,3.27-1.7,4.51l-7.59,8.64c-.43.49-.54,1.17-.26,1.77.27.6.85.97,1.51.97h4.47c1.97,0,3.57,1.6,3.57,3.57v34.49c0,1.68-.62,3.3-1.73,4.55l-42.96,48.21c-1.54,1.73-3.76,2.73-6.08,2.73h-62.54c-1.97,0-3.57-1.6-3.57-3.57v-34.68c0-1.68.62-3.3,1.74-4.56l7.52-8.43c.44-.49.55-1.17.28-1.78-.27-.6-.85-.98-1.51-.98h-4.45c-1.97,0-3.57-1.6-3.57-3.57v-34.18c0-2,.73-3.93,2.06-5.42L116.84,3.79c1.3-1.46,3.16-2.29,5.11-2.29h63.32M185.26.5h-63.32c-2.24,0-4.37.96-5.86,2.63l-42.83,48.08c-1.49,1.68-2.32,3.84-2.32,6.08v34.18c0,2.53,2.05,4.57,4.57,4.57h4.45c.56,0,.86.67.49,1.09l-7.52,8.43c-1.28,1.44-1.99,3.3-1.99,5.22v34.68c0,2.53,2.05,4.57,4.57,4.57h62.54c2.61,0,5.09-1.11,6.83-3.06l42.96-48.21c1.28-1.44,1.99-3.29,1.99-5.22v-34.49c0-2.53-2.05-4.57-4.57-4.57h-4.47c-.56,0-.86-.66-.49-1.08l7.59-8.64c1.26-1.43,1.95-3.27,1.95-5.17V5.07c0-2.53-2.05-4.57-4.57-4.57h0Z"/>
      <path class="cls-1" d="M250.21,1.5c1.97,0,3.57,1.6,3.57,3.57v34.52c0,1.66-.6,3.27-1.7,4.51l-7.59,8.64c-.43.49-.54,1.17-.26,1.77.27.6.85.97,1.51.97h4.47c1.97,0,3.57,1.6,3.57,3.57v34.49c0,1.68-.62,3.3-1.73,4.55l-42.96,48.21c-1.54,1.73-3.76,2.73-6.08,2.73h-62.54c-1.97,0-3.57-1.6-3.57-3.57v-34.68c0-1.68.62-3.3,1.74-4.56l7.52-8.43c.44-.49.55-1.17.28-1.78-.27-.6-.85-.98-1.51-.98h-4.45c-1.97,0-3.57-1.6-3.57-3.57v-34.18c0-2,.73-3.93,2.06-5.42L181.78,3.79c1.3-1.46,3.16-2.29,5.11-2.29h63.32M250.21.5h-63.32c-2.24,0-4.37.96-5.86,2.63l-42.83,48.08c-1.49,1.68-2.32,3.84-2.32,6.08v34.18c0,2.53,2.05,4.57,4.57,4.57h4.45c.56,0,.86.67.49,1.09l-7.52,8.43c-1.28,1.44-1.99,3.3-1.99,5.22v34.68c0,2.53,2.05,4.57,4.57,4.57h62.54c2.61,0,5.09-1.11,6.83-3.06l42.96-48.21c1.28-1.44,1.99-3.29,1.99-5.22v-34.49c0-2.53-2.05-4.57-4.57-4.57h-4.47c-.56,0-.86-.66-.49-1.08l7.59-8.64c1.26-1.43,1.95-3.27,1.95-5.17V5.07c0-2.53-2.05-4.57-4.57-4.57h0Z"/>
      <path class="cls-1" d="M315.15,1.5c1.97,0,3.57,1.6,3.57,3.57v34.52c0,1.66-.6,3.27-1.7,4.51l-7.59,8.64c-.43.49-.54,1.17-.26,1.77.27.6.85.97,1.51.97h4.47c1.97,0,3.57,1.6,3.57,3.57v34.49c0,1.68-.62,3.3-1.73,4.55l-42.96,48.21c-1.54,1.73-3.76,2.73-6.08,2.73h-62.54c-1.97,0-3.57-1.6-3.57-3.57v-34.68c0-1.68.62-3.3,1.74-4.56l7.52-8.43c.44-.49.55-1.17.28-1.78-.27-.6-.85-.98-1.51-.98h-4.45c-1.97,0-3.57-1.6-3.57-3.57v-34.18c0-2,.73-3.93,2.06-5.42L246.73,3.79c1.3-1.46,3.16-2.29,5.11-2.29h63.32M315.15.5h-63.32c-2.24,0-4.37.96-5.86,2.63l-42.83,48.08c-1.49,1.68-2.32,3.84-2.32,6.08v34.18c0,2.53,2.05,4.57,4.57,4.57h4.45c.56,0,.86.67.49,1.09l-7.52,8.43c-1.28,1.44-1.99,3.3-1.99,5.22v34.68c0,2.53,2.05,4.57,4.57,4.57h62.54c2.61,0,5.09-1.11,6.83-3.06l42.96-48.21c1.28-1.44,1.99-3.29,1.99-5.22v-34.49c0-2.53-2.05-4.57-4.57-4.57h-4.47c-.56,0-.86-.66-.49-1.08l7.59-8.64c1.26-1.43,1.95-3.27,1.95-5.17V5.07c0-2.53-2.05-4.57-4.57-4.57h0Z"/>
      <path class="cls-1" d="M380.1,1.5c1.97,0,3.57,1.6,3.57,3.57v34.52c0,1.66-.6,3.27-1.7,4.51l-7.59,8.64c-.43.49-.54,1.17-.26,1.77.27.6.85.97,1.51.97h4.47c1.97,0,3.57,1.6,3.57,3.57v34.49c0,1.68-.62,3.3-1.73,4.55l-42.96,48.21c-1.54,1.73-3.76,2.73-6.08,2.73h-62.54c-1.97,0-3.57-1.6-3.57-3.57v-34.68c0-1.68.62-3.3,1.74-4.56l7.52-8.43c.44-.49.55-1.17.28-1.78-.27-.6-.85-.98-1.51-.98h-4.45c-1.97,0-3.57-1.6-3.57-3.57v-34.18c0-2,.73-3.93,2.06-5.42L311.68,3.79c1.3-1.46,3.16-2.29,5.11-2.29h63.32M380.1.5h-63.32c-2.24,0-4.37.96-5.86,2.63l-42.83,48.08c-1.49,1.68-2.32,3.84-2.32,6.08v34.18c0,2.53,2.05,4.57,4.57,4.57h4.45c.56,0,.86.67.49,1.09l-7.52,8.43c-1.28,1.44-1.99,3.3-1.99,5.22v34.68c0,2.53,2.05,4.57,4.57,4.57h62.54c2.61,0,5.09-1.11,6.83-3.06l42.96-48.21c1.28-1.44,1.99-3.29,1.99-5.22v-34.49c0-2.53-2.05-4.57-4.57-4.57h-4.47c-.56,0-.86-.66-.49-1.08l7.59-8.64c1.26-1.43,1.95-3.27,1.95-5.17V5.07c0-2.53-2.05-4.57-4.57-4.57h0Z"/>
      <path class="cls-1" d="M445.05,1.5c1.97,0,3.57,1.6,3.57,3.57v34.52c0,1.66-.6,3.27-1.7,4.51l-7.59,8.64c-.43.49-.54,1.17-.26,1.77.27.6.85.97,1.51.97h4.47c1.97,0,3.57,1.6,3.57,3.57v34.49c0,1.68-.62,3.3-1.73,4.55l-42.96,48.21c-1.54,1.73-3.76,2.73-6.08,2.73h-62.54c-1.97,0-3.57-1.6-3.57-3.57v-34.68c0-1.68.62-3.3,1.74-4.56l7.52-8.43c.44-.49.55-1.17.28-1.78-.27-.6-.85-.98-1.51-.98h-4.45c-1.97,0-3.57-1.6-3.57-3.57v-34.18c0-2,.73-3.93,2.06-5.42L376.62,3.79c1.3-1.46,3.16-2.29,5.11-2.29h63.32M445.05.5h-63.32c-2.24,0-4.37.96-5.86,2.63l-42.83,48.08c-1.49,1.68-2.32,3.84-2.32,6.08v34.18c0,2.53,2.05,4.57,4.57,4.57h4.45c.56,0,.86.67.49,1.09l-7.52,8.43c-1.28,1.44-1.99,3.3-1.99,5.22v34.68c0,2.53,2.05,4.57,4.57,4.57h62.54c2.61,0,5.09-1.11,6.83-3.06l42.96-48.21c1.28-1.44,1.99-3.29,1.99-5.22v-34.49c0-2.53-2.05-4.57-4.57-4.57h-4.47c-.56,0-.86-.66-.49-1.08l7.59-8.64c1.26-1.43,1.95-3.27,1.95-5.17V5.07c0-2.53-2.05-4.57-4.57-4.57h0Z"/>
      <path class="cls-1" d="M509.99,1.5c1.97,0,3.57,1.6,3.57,3.57v34.52c0,1.66-.6,3.27-1.7,4.51l-7.59,8.64c-.43.49-.54,1.17-.26,1.77.27.6.85.97,1.51.97h4.47c1.97,0,3.57,1.6,3.57,3.57v34.49c0,1.68-.62,3.3-1.73,4.55l-42.96,48.21c-1.54,1.73-3.76,2.73-6.08,2.73h-62.54c-1.97,0-3.57-1.6-3.57-3.57v-34.68c0-1.68.62-3.3,1.74-4.56l7.52-8.43c.44-.49.55-1.17.28-1.78-.27-.6-.85-.98-1.51-.98h-4.45c-1.97,0-3.57-1.6-3.57-3.57v-34.18c0-2,.73-3.93,2.06-5.42L441.57,3.79c1.3-1.46,3.16-2.29,5.11-2.29h63.32M509.99.5h-63.32c-2.24,0-4.37.96-5.86,2.63l-42.83,48.08c-1.49,1.68-2.32,3.84-2.32,6.08v34.18c0,2.53,2.05,4.57,4.57,4.57h4.45c.56,0,.86.67.49,1.09l-7.52,8.43c-1.28,1.44-1.99,3.3-1.99,5.22v34.68c0,2.53,2.05,4.57,4.57,4.57h62.54c2.61,0,5.09-1.11,6.83-3.06l42.96-48.21c1.28-1.44,1.99-3.29,1.99-5.22v-34.49c0-2.53-2.05-4.57-4.57-4.57h-4.47c-.56,0-.86-.66-.49-1.08l7.59-8.64c1.26-1.43,1.95-3.27,1.95-5.17V5.07c0-2.53-2.05-4.57-4.57-4.57h0Z"/>
      <path class="cls-1" d="M574.94,1.5c1.97,0,3.57,1.6,3.57,3.57v34.52c0,1.66-.6,3.27-1.7,4.51l-7.59,8.64c-.43.49-.54,1.17-.26,1.77.27.6.85.97,1.51.97h4.47c1.97,0,3.57,1.6,3.57,3.57v34.49c0,1.68-.62,3.3-1.73,4.55l-42.96,48.21c-1.54,1.73-3.76,2.73-6.08,2.73h-62.54c-1.97,0-3.57-1.6-3.57-3.57v-34.68c0-1.68.62-3.3,1.74-4.56l7.52-8.43c.44-.49.55-1.17.28-1.78-.27-.6-.85-.98-1.51-.98h-4.45c-1.97,0-3.57-1.6-3.57-3.57v-34.18c0-2,.73-3.93,2.06-5.42L506.51,3.79c1.3-1.46,3.16-2.29,5.11-2.29h63.32M574.94.5h-63.32c-2.24,0-4.37.96-5.86,2.63l-42.83,48.08c-1.49,1.68-2.32,3.84-2.32,6.08v34.18c0,2.53,2.05,4.57,4.57,4.57h4.45c.56,0,.86.67.49,1.09l-7.52,8.43c-1.28,1.44-1.99,3.3-1.99,5.22v34.68c0,2.53,2.05,4.57,4.57,4.57h62.54c2.61,0,5.09-1.11,6.83-3.06l42.96-48.21c1.28-1.44,1.99-3.29,1.99-5.22v-34.49c0-2.53-2.05-4.57-4.57-4.57h-4.47c-.56,0-.86-.66-.49-1.08l7.59-8.64c1.26-1.43,1.95-3.27,1.95-5.17V5.07c0-2.53-2.05-4.57-4.57-4.57h0Z"/>
    </g>
    <g>
      <path class="cls-1" d="M114.82,150.14c1.97,0,3.57,1.6,3.57,3.57v34.52c0,1.66-.6,3.27-1.7,4.51l-7.59,8.64c-.43.49-.54,1.17-.26,1.77.27.6.85.97,1.51.97h4.47c1.97,0,3.57,1.6,3.57,3.57v34.49c0,1.68-.62,3.3-1.73,4.55l-42.96,48.21c-1.54,1.73-3.76,2.73-6.08,2.73H5.07c-1.97,0-3.57-1.6-3.57-3.57v-34.68c0-1.68.62-3.3,1.74-4.56l7.52-8.43c.44-.49.55-1.17.28-1.78s-.85-.98-1.51-.98h-4.45c-1.97,0-3.57-1.6-3.57-3.57v-34.18c0-2,.73-3.93,2.06-5.42l42.83-48.08c1.3-1.46,3.16-2.29,5.11-2.29h63.32M114.82,149.14h-63.32c-2.24,0-4.37.96-5.86,2.63L2.82,199.85c-1.49,1.68-2.32,3.84-2.32,6.08v34.18c0,2.53,2.05,4.57,4.57,4.57h4.45c.56,0,.86.67.49,1.09l-7.52,8.43c-1.28,1.44-1.99,3.3-1.99,5.22v34.68c0,2.53,2.05,4.57,4.57,4.57h62.54c2.61,0,5.09-1.11,6.83-3.06l42.96-48.21c1.28-1.44,1.99-3.29,1.99-5.22v-34.49c0-2.53-2.05-4.57-4.57-4.57h-4.47c-.56,0-.86-.66-.49-1.08l7.59-8.64c1.26-1.43,1.95-3.27,1.95-5.17v-34.52c0-2.53-2.05-4.57-4.57-4.57h0Z"/>
      <path class="cls-1" d="M179.76,150.14c1.97,0,3.57,1.6,3.57,3.57v34.52c0,1.66-.6,3.27-1.7,4.51l-7.59,8.64c-.43.49-.53,1.17-.26,1.77.27.6.85.97,1.51.97h4.47c1.97,0,3.57,1.6,3.57,3.57v34.49c0,1.68-.62,3.3-1.73,4.55l-42.96,48.21c-1.54,1.73-3.76,2.73-6.08,2.73h-62.54c-1.97,0-3.57-1.6-3.57-3.57v-34.68c0-1.68.62-3.3,1.74-4.56l7.52-8.43c.44-.49.55-1.17.28-1.78-.27-.6-.85-.98-1.51-.98h-4.45c-1.97,0-3.57-1.6-3.57-3.57v-34.18c0-2,.73-3.93,2.06-5.42l42.83-48.08c1.3-1.46,3.16-2.29,5.11-2.29h63.32M179.76,149.14h-63.32c-2.24,0-4.37.96-5.86,2.63l-42.83,48.08c-1.49,1.68-2.32,3.84-2.32,6.08v34.18c0,2.53,2.05,4.57,4.57,4.57h4.45c.56,0,.86.67.49,1.09l-7.52,8.43c-1.28,1.44-1.99,3.3-1.99,5.22v34.68c0,2.53,2.05,4.57,4.57,4.57h62.54c2.61,0,5.09-1.11,6.83-3.06l42.96-48.21c1.28-1.44,1.99-3.29,1.99-5.22v-34.49c0-2.53-2.05-4.57-4.57-4.57h-4.47c-.56,0-.86-.66-.49-1.08l7.59-8.64c1.26-1.43,1.95-3.27,1.95-5.17v-34.52c0-2.53-2.05-4.57-4.57-4.57h0Z"/>
      <path class="cls-1" d="M244.71,150.14c1.97,0,3.57,1.6,3.57,3.57v34.52c0,1.66-.6,3.27-1.7,4.51l-7.59,8.64c-.43.49-.53,1.17-.26,1.77.27.6.85.97,1.51.97h4.47c1.97,0,3.57,1.6,3.57,3.57v34.49c0,1.68-.62,3.3-1.73,4.55l-42.96,48.21c-1.54,1.73-3.76,2.73-6.08,2.73h-62.54c-1.97,0-3.57-1.6-3.57-3.57v-34.68c0-1.68.62-3.3,1.74-4.56l7.52-8.43c.44-.49.55-1.17.28-1.78-.27-.6-.85-.98-1.51-.98h-4.45c-1.97,0-3.57-1.6-3.57-3.57v-34.18c0-2,.73-3.93,2.06-5.42l42.83-48.08c1.3-1.46,3.16-2.29,5.11-2.29h63.32M244.71,149.14h-63.32c-2.24,0-4.37.96-5.86,2.63l-42.83,48.08c-1.49,1.68-2.32,3.84-2.32,6.08v34.18c0,2.53,2.05,4.57,4.57,4.57h4.45c.56,0,.86.67.49,1.09l-7.52,8.43c-1.28,1.44-1.99,3.3-1.99,5.22v34.68c0,2.53,2.05,4.57,4.57,4.57h62.54c2.61,0,5.09-1.11,6.83-3.06l42.96-48.21c1.28-1.44,1.99-3.29,1.99-5.22v-34.49c0-2.53-2.05-4.57-4.57-4.57h-4.47c-.56,0-.86-.66-.49-1.08l7.59-8.64c1.26-1.43,1.95-3.27,1.95-5.17v-34.52c0-2.53-2.05-4.57-4.57-4.57h0Z"/>
      <path class="cls-1" d="M309.65,150.14c1.97,0,3.57,1.6,3.57,3.57v34.52c0,1.66-.6,3.27-1.7,4.51l-7.59,8.64c-.43.49-.53,1.17-.26,1.77.27.6.85.97,1.51.97h4.47c1.97,0,3.57,1.6,3.57,3.57v34.49c0,1.68-.62,3.3-1.73,4.55l-42.96,48.21c-1.54,1.73-3.76,2.73-6.08,2.73h-62.54c-1.97,0-3.57-1.6-3.57-3.57v-34.68c0-1.68.62-3.3,1.74-4.56l7.52-8.43c.44-.49.55-1.17.28-1.78-.27-.6-.85-.98-1.51-.98h-4.45c-1.97,0-3.57-1.6-3.57-3.57v-34.18c0-2,.73-3.93,2.06-5.42l42.83-48.08c1.3-1.46,3.16-2.29,5.11-2.29h63.32M309.65,149.14h-63.32c-2.24,0-4.37.96-5.86,2.63l-42.83,48.08c-1.49,1.68-2.32,3.84-2.32,6.08v34.18c0,2.53,2.05,4.57,4.57,4.57h4.45c.56,0,.86.67.49,1.09l-7.52,8.43c-1.28,1.44-1.99,3.3-1.99,5.22v34.68c0,2.53,2.05,4.57,4.57,4.57h62.54c2.61,0,5.09-1.11,6.83-3.06l42.96-48.21c1.28-1.44,1.99-3.29,1.99-5.22v-34.49c0-2.53-2.05-4.57-4.57-4.57h-4.47c-.56,0-.86-.66-.49-1.08l7.59-8.64c1.26-1.43,1.95-3.27,1.95-5.17v-34.52c0-2.53-2.05-4.57-4.57-4.57h0Z"/>
      <path class="cls-1" d="M374.6,150.14c1.97,0,3.57,1.6,3.57,3.57v34.52c0,1.66-.6,3.27-1.7,4.51l-7.59,8.64c-.43.49-.53,1.17-.26,1.77.27.6.85.97,1.51.97h4.47c1.97,0,3.57,1.6,3.57,3.57v34.49c0,1.68-.62,3.3-1.73,4.55l-42.96,48.21c-1.54,1.73-3.76,2.73-6.08,2.73h-62.54c-1.97,0-3.57-1.6-3.57-3.57v-34.68c0-1.68.62-3.3,1.74-4.56l7.52-8.43c.44-.49.55-1.17.28-1.78-.27-.6-.85-.98-1.51-.98h-4.45c-1.97,0-3.57-1.6-3.57-3.57v-34.18c0-2,.73-3.93,2.06-5.42l42.83-48.08c1.3-1.46,3.16-2.29,5.11-2.29h63.32M374.6,149.14h-63.32c-2.24,0-4.37.96-5.86,2.63l-42.83,48.08c-1.49,1.68-2.32,3.84-2.32,6.08v34.18c0,2.53,2.05,4.57,4.57,4.57h4.45c.56,0,.86.67.49,1.09l-7.52,8.43c-1.28,1.44-1.99,3.3-1.99,5.22v34.68c0,2.53,2.05,4.57,4.57,4.57h62.54c2.61,0,5.09-1.11,6.83-3.06l42.96-48.21c1.28-1.44,1.99-3.29,1.99-5.22v-34.49c0-2.53-2.05-4.57-4.57-4.57h-4.47c-.56,0-.86-.66-.49-1.08l7.59-8.64c1.26-1.43,1.95-3.27,1.95-5.17v-34.52c0-2.53-2.05-4.57-4.57-4.57h0Z"/>
      <path class="cls-1" d="M439.55,150.14c1.97,0,3.57,1.6,3.57,3.57v34.52c0,1.66-.6,3.27-1.7,4.51l-7.59,8.64c-.43.49-.53,1.17-.26,1.77.27.6.85.97,1.51.97h4.47c1.97,0,3.57,1.6,3.57,3.57v34.49c0,1.68-.62,3.3-1.73,4.55l-42.96,48.21c-1.54,1.73-3.76,2.73-6.08,2.73h-62.54c-1.97,0-3.57-1.6-3.57-3.57v-34.68c0-1.68.62-3.3,1.74-4.56l7.52-8.43c.44-.49.55-1.17.28-1.78-.27-.6-.85-.98-1.51-.98h-4.45c-1.97,0-3.57-1.6-3.57-3.57v-34.18c0-2,.73-3.93,2.06-5.42l42.83-48.08c1.3-1.46,3.16-2.29,5.11-2.29h63.32M439.55,149.14h-63.32c-2.24,0-4.37.96-5.86,2.63l-42.83,48.08c-1.49,1.68-2.32,3.84-2.32,6.08v34.18c0,2.53,2.05,4.57,4.57,4.57h4.45c.56,0,.86.67.49,1.09l-7.52,8.43c-1.28,1.44-1.99,3.3-1.99,5.22v34.68c0,2.53,2.05,4.57,4.57,4.57h62.54c2.61,0,5.09-1.11,6.83-3.06l42.96-48.21c1.28-1.44,1.99-3.29,1.99-5.22v-34.49c0-2.53-2.05-4.57-4.57-4.57h-4.47c-.56,0-.86-.66-.49-1.08l7.59-8.64c1.26-1.43,1.95-3.27,1.95-5.17v-34.52c0-2.53-2.05-4.57-4.57-4.57h0Z"/>
      <path class="cls-1" d="M504.49,150.14c1.97,0,3.57,1.6,3.57,3.57v34.52c0,1.66-.6,3.27-1.7,4.51l-7.59,8.64c-.43.49-.54,1.17-.26,1.77.27.6.85.97,1.51.97h4.47c1.97,0,3.57,1.6,3.57,3.57v34.49c0,1.68-.62,3.3-1.73,4.55l-42.96,48.21c-1.54,1.73-3.76,2.73-6.08,2.73h-62.54c-1.97,0-3.57-1.6-3.57-3.57v-34.68c0-1.68.62-3.3,1.74-4.56l7.52-8.43c.44-.49.55-1.17.28-1.78-.27-.6-.85-.98-1.51-.98h-4.45c-1.97,0-3.57-1.6-3.57-3.57v-34.18c0-2,.73-3.93,2.06-5.42l42.83-48.08c1.3-1.46,3.16-2.29,5.11-2.29h63.32M504.49,149.14h-63.32c-2.24,0-4.37.96-5.86,2.63l-42.83,48.08c-1.49,1.68-2.32,3.84-2.32,6.08v34.18c0,2.53,2.05,4.57,4.57,4.57h4.45c.56,0,.86.67.49,1.09l-7.52,8.43c-1.28,1.44-1.99,3.3-1.99,5.22v34.68c0,2.53,2.05,4.57,4.57,4.57h62.54c2.61,0,5.09-1.11,6.83-3.06l42.96-48.21c1.28-1.44,1.99-3.29,1.99-5.22v-34.49c0-2.53-2.05-4.57-4.57-4.57h-4.47c-.56,0-.86-.66-.49-1.08l7.59-8.64c1.26-1.43,1.95-3.27,1.95-5.17v-34.52c0-2.53-2.05-4.57-4.57-4.57h0Z"/>
    </g>
    <g>
      <path class="cls-1" d="M185.26,298.73c1.97,0,3.57,1.6,3.57,3.57v34.52c0,1.66-.6,3.27-1.7,4.51l-7.59,8.64c-.43.49-.54,1.17-.26,1.77.27.6.85.97,1.51.97h4.47c1.97,0,3.57,1.6,3.57,3.57v34.49c0,1.68-.62,3.3-1.73,4.55l-42.96,48.21c-1.54,1.73-3.76,2.73-6.08,2.73h-62.54c-1.97,0-3.57-1.6-3.57-3.57v-34.68c0-1.68.62-3.3,1.74-4.56l7.52-8.43c.44-.49.55-1.17.28-1.78-.27-.6-.85-.98-1.51-.98h-4.45c-1.97,0-3.57-1.6-3.57-3.57v-34.18c0-2,.73-3.93,2.06-5.42l42.83-48.08c1.3-1.46,3.16-2.29,5.11-2.29h63.32M185.26,297.73h-63.32c-2.24,0-4.37.96-5.86,2.63l-42.83,48.08c-1.49,1.68-2.32,3.84-2.32,6.08v34.18c0,2.53,2.05,4.57,4.57,4.57h4.45c.56,0,.86.67.49,1.09l-7.52,8.43c-1.28,1.44-1.99,3.3-1.99,5.22v34.68c0,2.53,2.05,4.57,4.57,4.57h62.54c2.61,0,5.09-1.11,6.83-3.06l42.96-48.21c1.28-1.44,1.99-3.29,1.99-5.22v-34.49c0-2.53-2.05-4.57-4.57-4.57h-4.47c-.56,0-.86-.66-.49-1.08l7.59-8.64c1.26-1.43,1.95-3.27,1.95-5.17v-34.52c0-2.53-2.05-4.57-4.57-4.57h0Z"/>
      <path class="cls-1" d="M250.21,298.73c1.97,0,3.57,1.6,3.57,3.57v34.52c0,1.66-.6,3.27-1.7,4.51l-7.59,8.64c-.43.49-.54,1.17-.26,1.77.27.6.85.97,1.51.97h4.47c1.97,0,3.57,1.6,3.57,3.57v34.49c0,1.68-.62,3.3-1.73,4.55l-42.96,48.21c-1.54,1.73-3.76,2.73-6.08,2.73h-62.54c-1.97,0-3.57-1.6-3.57-3.57v-34.68c0-1.68.62-3.3,1.74-4.56l7.52-8.43c.44-.49.55-1.17.28-1.78-.27-.6-.85-.98-1.51-.98h-4.45c-1.97,0-3.57-1.6-3.57-3.57v-34.18c0-2,.73-3.93,2.06-5.42l42.83-48.08c1.3-1.46,3.16-2.29,5.11-2.29h63.32M250.21,297.73h-63.32c-2.24,0-4.37.96-5.86,2.63l-42.83,48.08c-1.49,1.68-2.32,3.84-2.32,6.08v34.18c0,2.53,2.05,4.57,4.57,4.57h4.45c.56,0,.86.67.49,1.09l-7.52,8.43c-1.28,1.44-1.99,3.3-1.99,5.22v34.68c0,2.53,2.05,4.57,4.57,4.57h62.54c2.61,0,5.09-1.11,6.83-3.06l42.96-48.21c1.28-1.44,1.99-3.29,1.99-5.22v-34.49c0-2.53-2.05-4.57-4.57-4.57h-4.47c-.56,0-.86-.66-.49-1.08l7.59-8.64c1.26-1.43,1.95-3.27,1.95-5.17v-34.52c0-2.53-2.05-4.57-4.57-4.57h0Z"/>
      <path class="cls-1" d="M315.15,298.73c1.97,0,3.57,1.6,3.57,3.57v34.52c0,1.66-.6,3.27-1.7,4.51l-7.59,8.64c-.43.49-.54,1.17-.26,1.77.27.6.85.97,1.51.97h4.47c1.97,0,3.57,1.6,3.57,3.57v34.49c0,1.68-.62,3.3-1.73,4.55l-42.96,48.21c-1.54,1.73-3.76,2.73-6.08,2.73h-62.54c-1.97,0-3.57-1.6-3.57-3.57v-34.68c0-1.68.62-3.3,1.74-4.56l7.52-8.43c.44-.49.55-1.17.28-1.78-.27-.6-.85-.98-1.51-.98h-4.45c-1.97,0-3.57-1.6-3.57-3.57v-34.18c0-2,.73-3.93,2.06-5.42l42.83-48.08c1.3-1.46,3.16-2.29,5.11-2.29h63.32M315.15,297.73h-63.32c-2.24,0-4.37.96-5.86,2.63l-42.83,48.08c-1.49,1.68-2.32,3.84-2.32,6.08v34.18c0,2.53,2.05,4.57,4.57,4.57h4.45c.56,0,.86.67.49,1.09l-7.52,8.43c-1.28,1.44-1.99,3.3-1.99,5.22v34.68c0,2.53,2.05,4.57,4.57,4.57h62.54c2.61,0,5.09-1.11,6.83-3.06l42.96-48.21c1.28-1.44,1.99-3.29,1.99-5.22v-34.49c0-2.53-2.05-4.57-4.57-4.57h-4.47c-.56,0-.86-.66-.49-1.08l7.59-8.64c1.26-1.43,1.95-3.27,1.95-5.17v-34.52c0-2.53-2.05-4.57-4.57-4.57h0Z"/>
      <path class="cls-1" d="M380.1,298.73c1.97,0,3.57,1.6,3.57,3.57v34.52c0,1.66-.6,3.27-1.7,4.51l-7.59,8.64c-.43.49-.54,1.17-.26,1.77.27.6.85.97,1.51.97h4.47c1.97,0,3.57,1.6,3.57,3.57v34.49c0,1.68-.62,3.3-1.73,4.55l-42.96,48.21c-1.54,1.73-3.76,2.73-6.08,2.73h-62.54c-1.97,0-3.57-1.6-3.57-3.57v-34.68c0-1.68.62-3.3,1.74-4.56l7.52-8.43c.44-.49.55-1.17.28-1.78-.27-.6-.85-.98-1.51-.98h-4.45c-1.97,0-3.57-1.6-3.57-3.57v-34.18c0-2,.73-3.93,2.06-5.42l42.83-48.08c1.3-1.46,3.16-2.29,5.11-2.29h63.32M380.1,297.73h-63.32c-2.24,0-4.37.96-5.86,2.63l-42.83,48.08c-1.49,1.68-2.32,3.84-2.32,6.08v34.18c0,2.53,2.05,4.57,4.57,4.57h4.45c.56,0,.86.67.49,1.09l-7.52,8.43c-1.28,1.44-1.99,3.3-1.99,5.22v34.68c0,2.53,2.05,4.57,4.57,4.57h62.54c2.61,0,5.09-1.11,6.83-3.06l42.96-48.21c1.28-1.44,1.99-3.29,1.99-5.22v-34.49c0-2.53-2.05-4.57-4.57-4.57h-4.47c-.56,0-.86-.66-.49-1.08l7.59-8.64c1.26-1.43,1.95-3.27,1.95-5.17v-34.52c0-2.53-2.05-4.57-4.57-4.57h0Z"/>
      <path class="cls-1" d="M445.05,298.73c1.97,0,3.57,1.6,3.57,3.57v34.52c0,1.66-.6,3.27-1.7,4.51l-7.59,8.64c-.43.49-.54,1.17-.26,1.77.27.6.85.97,1.51.97h4.47c1.97,0,3.57,1.6,3.57,3.57v34.49c0,1.68-.62,3.3-1.73,4.55l-42.96,48.21c-1.54,1.73-3.76,2.73-6.08,2.73h-62.54c-1.97,0-3.57-1.6-3.57-3.57v-34.68c0-1.68.62-3.3,1.74-4.56l7.52-8.43c.44-.49.55-1.17.28-1.78-.27-.6-.85-.98-1.51-.98h-4.45c-1.97,0-3.57-1.6-3.57-3.57v-34.18c0-2,.73-3.93,2.06-5.42l42.83-48.08c1.3-1.46,3.16-2.29,5.11-2.29h63.32M445.05,297.73h-63.32c-2.24,0-4.37.96-5.86,2.63l-42.83,48.08c-1.49,1.68-2.32,3.84-2.32,6.08v34.18c0,2.53,2.05,4.57,4.57,4.57h4.45c.56,0,.86.67.49,1.09l-7.52,8.43c-1.28,1.44-1.99,3.3-1.99,5.22v34.68c0,2.53,2.05,4.57,4.57,4.57h62.54c2.61,0,5.09-1.11,6.83-3.06l42.96-48.21c1.28-1.44,1.99-3.29,1.99-5.22v-34.49c0-2.53-2.05-4.57-4.57-4.57h-4.47c-.56,0-.86-.66-.49-1.08l7.59-8.64c1.26-1.43,1.95-3.27,1.95-5.17v-34.52c0-2.53-2.05-4.57-4.57-4.57h0Z"/>
      <path class="cls-1" d="M509.99,298.73c1.97,0,3.57,1.6,3.57,3.57v34.52c0,1.66-.6,3.27-1.7,4.51l-7.59,8.64c-.43.49-.54,1.17-.26,1.77.27.6.85.97,1.51.97h4.47c1.97,0,3.57,1.6,3.57,3.57v34.49c0,1.68-.62,3.3-1.73,4.55l-42.96,48.21c-1.54,1.73-3.76,2.73-6.08,2.73h-62.54c-1.97,0-3.57-1.6-3.57-3.57v-34.68c0-1.68.62-3.3,1.74-4.56l7.52-8.43c.44-.49.55-1.17.28-1.78s-.85-.98-1.51-.98h-4.45c-1.97,0-3.57-1.6-3.57-3.57v-34.18c0-2,.73-3.93,2.06-5.42l42.83-48.08c1.3-1.46,3.16-2.29,5.11-2.29h63.32M509.99,297.73h-63.32c-2.24,0-4.37.96-5.86,2.63l-42.83,48.08c-1.49,1.68-2.32,3.84-2.32,6.08v34.18c0,2.53,2.05,4.57,4.57,4.57h4.45c.56,0,.86.67.49,1.09l-7.52,8.43c-1.28,1.44-1.99,3.3-1.99,5.22v34.68c0,2.53,2.05,4.57,4.57,4.57h62.54c2.61,0,5.09-1.11,6.83-3.06l42.96-48.21c1.28-1.44,1.99-3.29,1.99-5.22v-34.49c0-2.53-2.05-4.57-4.57-4.57h-4.47c-.56,0-.86-.66-.49-1.08l7.59-8.64c1.26-1.43,1.95-3.27,1.95-5.17v-34.52c0-2.53-2.05-4.57-4.57-4.57h0Z"/>
      <path class="cls-1" d="M574.94,298.73c1.97,0,3.57,1.6,3.57,3.57v34.52c0,1.66-.6,3.27-1.7,4.51l-7.59,8.64c-.43.49-.54,1.17-.26,1.77.27.6.85.97,1.51.97h4.47c1.97,0,3.57,1.6,3.57,3.57v34.49c0,1.68-.62,3.3-1.73,4.55l-42.96,48.21c-1.54,1.73-3.76,2.73-6.08,2.73h-62.54c-1.97,0-3.57-1.6-3.57-3.57v-34.68c0-1.68.62-3.3,1.74-4.56l7.52-8.43c.44-.49.55-1.17.28-1.78s-.85-.98-1.51-.98h-4.45c-1.97,0-3.57-1.6-3.57-3.57v-34.18c0-2,.73-3.93,2.06-5.42l42.83-48.08c1.3-1.46,3.16-2.29,5.11-2.29h63.32M574.94,297.73h-63.32c-2.24,0-4.37.96-5.86,2.63l-42.83,48.08c-1.49,1.68-2.32,3.84-2.32,6.08v34.18c0,2.53,2.05,4.57,4.57,4.57h4.45c.56,0,.86.67.49,1.09l-7.52,8.43c-1.28,1.44-1.99,3.3-1.99,5.22v34.68c0,2.53,2.05,4.57,4.57,4.57h62.54c2.61,0,5.09-1.11,6.83-3.06l42.96-48.21c1.28-1.44,1.99-3.29,1.99-5.22v-34.49c0-2.53-2.05-4.57-4.57-4.57h-4.47c-.56,0-.86-.66-.49-1.08l7.59-8.64c1.26-1.43,1.95-3.27,1.95-5.17v-34.52c0-2.53-2.05-4.57-4.57-4.57h0Z"/>
    </g>
    <g>
      <path class="cls-1" d="M114.82,447.37c1.97,0,3.57,1.6,3.57,3.57v34.52c0,1.66-.6,3.27-1.7,4.51l-7.59,8.64c-.43.49-.54,1.17-.26,1.77.27.6.85.97,1.51.97h4.47c1.97,0,3.57,1.6,3.57,3.57v34.49c0,1.68-.62,3.3-1.73,4.55l-42.96,48.21c-1.54,1.73-3.76,2.73-6.08,2.73H5.07c-1.97,0-3.57-1.6-3.57-3.57v-34.68c0-1.68.62-3.3,1.74-4.56l7.52-8.43c.44-.49.55-1.17.28-1.78s-.85-.98-1.51-.98h-4.45c-1.97,0-3.57-1.6-3.57-3.57v-34.18c0-2,.73-3.93,2.06-5.42l42.83-48.08c1.3-1.46,3.16-2.29,5.11-2.29h63.32M114.82,446.37h-63.32c-2.24,0-4.37.96-5.86,2.63L2.82,497.08c-1.49,1.68-2.32,3.84-2.32,6.08v34.18c0,2.53,2.05,4.57,4.57,4.57h4.45c.56,0,.86.67.49,1.09l-7.52,8.43c-1.28,1.44-1.99,3.3-1.99,5.22v34.68c0,2.53,2.05,4.57,4.57,4.57h62.54c2.61,0,5.09-1.11,6.83-3.06l42.96-48.21c1.28-1.44,1.99-3.29,1.99-5.22v-34.49c0-2.53-2.05-4.57-4.57-4.57h-4.47c-.56,0-.86-.66-.49-1.08l7.59-8.64c1.26-1.43,1.95-3.27,1.95-5.17v-34.52c0-2.53-2.05-4.57-4.57-4.57h0Z"/>
      <path class="cls-1" d="M179.76,447.37c1.97,0,3.57,1.6,3.57,3.57v34.52c0,1.66-.6,3.27-1.7,4.51l-7.59,8.64c-.43.49-.53,1.17-.26,1.77.27.6.85.97,1.51.97h4.47c1.97,0,3.57,1.6,3.57,3.57v34.49c0,1.68-.62,3.3-1.73,4.55l-42.96,48.21c-1.54,1.73-3.76,2.73-6.08,2.73h-62.54c-1.97,0-3.57-1.6-3.57-3.57v-34.68c0-1.68.62-3.3,1.74-4.56l7.52-8.43c.44-.49.55-1.17.28-1.78-.27-.6-.85-.98-1.51-.98h-4.45c-1.97,0-3.57-1.6-3.57-3.57v-34.18c0-2,.73-3.93,2.06-5.42l42.83-48.08c1.3-1.46,3.16-2.29,5.11-2.29h63.32M179.76,446.37h-63.32c-2.24,0-4.37.96-5.86,2.63l-42.83,48.08c-1.49,1.68-2.32,3.84-2.32,6.08v34.18c0,2.53,2.05,4.57,4.57,4.57h4.45c.56,0,.86.67.49,1.09l-7.52,8.43c-1.28,1.44-1.99,3.3-1.99,5.22v34.68c0,2.53,2.05,4.57,4.57,4.57h62.54c2.61,0,5.09-1.11,6.83-3.06l42.96-48.21c1.28-1.44,1.99-3.29,1.99-5.22v-34.49c0-2.53-2.05-4.57-4.57-4.57h-4.47c-.56,0-.86-.66-.49-1.08l7.59-8.64c1.26-1.43,1.95-3.27,1.95-5.17v-34.52c0-2.53-2.05-4.57-4.57-4.57h0Z"/>
      <path class="cls-1" d="M244.71,447.37c1.97,0,3.57,1.6,3.57,3.57v34.52c0,1.66-.6,3.27-1.7,4.51l-7.59,8.64c-.43.49-.53,1.17-.26,1.77.27.6.85.97,1.51.97h4.47c1.97,0,3.57,1.6,3.57,3.57v34.49c0,1.68-.62,3.3-1.73,4.55l-42.96,48.21c-1.54,1.73-3.76,2.73-6.08,2.73h-62.54c-1.97,0-3.57-1.6-3.57-3.57v-34.68c0-1.68.62-3.3,1.74-4.56l7.52-8.43c.44-.49.55-1.17.28-1.78-.27-.6-.85-.98-1.51-.98h-4.45c-1.97,0-3.57-1.6-3.57-3.57v-34.18c0-2,.73-3.93,2.06-5.42l42.83-48.08c1.3-1.46,3.16-2.29,5.11-2.29h63.32M244.71,446.37h-63.32c-2.24,0-4.37.96-5.86,2.63l-42.83,48.08c-1.49,1.68-2.32,3.84-2.32,6.08v34.18c0,2.53,2.05,4.57,4.57,4.57h4.45c.56,0,.86.67.49,1.09l-7.52,8.43c-1.28,1.44-1.99,3.3-1.99,5.22v34.68c0,2.53,2.05,4.57,4.57,4.57h62.54c2.61,0,5.09-1.11,6.83-3.06l42.96-48.21c1.28-1.44,1.99-3.29,1.99-5.22v-34.49c0-2.53-2.05-4.57-4.57-4.57h-4.47c-.56,0-.86-.66-.49-1.08l7.59-8.64c1.26-1.43,1.95-3.27,1.95-5.17v-34.52c0-2.53-2.05-4.57-4.57-4.57h0Z"/>
      <path class="cls-1" d="M309.65,447.37c1.97,0,3.57,1.6,3.57,3.57v34.52c0,1.66-.6,3.27-1.7,4.51l-7.59,8.64c-.43.49-.53,1.17-.26,1.77.27.6.85.97,1.51.97h4.47c1.97,0,3.57,1.6,3.57,3.57v34.49c0,1.68-.62,3.3-1.73,4.55l-42.96,48.21c-1.54,1.73-3.76,2.73-6.08,2.73h-62.54c-1.97,0-3.57-1.6-3.57-3.57v-34.68c0-1.68.62-3.3,1.74-4.56l7.52-8.43c.44-.49.55-1.17.28-1.78-.27-.6-.85-.98-1.51-.98h-4.45c-1.97,0-3.57-1.6-3.57-3.57v-34.18c0-2,.73-3.93,2.06-5.42l42.83-48.08c1.3-1.46,3.16-2.29,5.11-2.29h63.32M309.65,446.37h-63.32c-2.24,0-4.37.96-5.86,2.63l-42.83,48.08c-1.49,1.68-2.32,3.84-2.32,6.08v34.18c0,2.53,2.05,4.57,4.57,4.57h4.45c.56,0,.86.67.49,1.09l-7.52,8.43c-1.28,1.44-1.99,3.3-1.99,5.22v34.68c0,2.53,2.05,4.57,4.57,4.57h62.54c2.61,0,5.09-1.11,6.83-3.06l42.96-48.21c1.28-1.44,1.99-3.29,1.99-5.22v-34.49c0-2.53-2.05-4.57-4.57-4.57h-4.47c-.56,0-.86-.66-.49-1.08l7.59-8.64c1.26-1.43,1.95-3.27,1.95-5.17v-34.52c0-2.53-2.05-4.57-4.57-4.57h0Z"/>
      <path class="cls-1" d="M374.6,447.37c1.97,0,3.57,1.6,3.57,3.57v34.52c0,1.66-.6,3.27-1.7,4.51l-7.59,8.64c-.43.49-.53,1.17-.26,1.77.27.6.85.97,1.51.97h4.47c1.97,0,3.57,1.6,3.57,3.57v34.49c0,1.68-.62,3.3-1.73,4.55l-42.96,48.21c-1.54,1.73-3.76,2.73-6.08,2.73h-62.54c-1.97,0-3.57-1.6-3.57-3.57v-34.68c0-1.68.62-3.3,1.74-4.56l7.52-8.43c.44-.49.55-1.17.28-1.78-.27-.6-.85-.98-1.51-.98h-4.45c-1.97,0-3.57-1.6-3.57-3.57v-34.18c0-2,.73-3.93,2.06-5.42l42.83-48.08c1.3-1.46,3.16-2.29,5.11-2.29h63.32M374.6,446.37h-63.32c-2.24,0-4.37.96-5.86,2.63l-42.83,48.08c-1.49,1.68-2.32,3.84-2.32,6.08v34.18c0,2.53,2.05,4.57,4.57,4.57h4.45c.56,0,.86.67.49,1.09l-7.52,8.43c-1.28,1.44-1.99,3.3-1.99,5.22v34.68c0,2.53,2.05,4.57,4.57,4.57h62.54c2.61,0,5.09-1.11,6.83-3.06l42.96-48.21c1.28-1.44,1.99-3.29,1.99-5.22v-34.49c0-2.53-2.05-4.57-4.57-4.57h-4.47c-.56,0-.86-.66-.49-1.08l7.59-8.64c1.26-1.43,1.95-3.27,1.95-5.17v-34.52c0-2.53-2.05-4.57-4.57-4.57h0Z"/>
      <path class="cls-1" d="M439.55,447.37c1.97,0,3.57,1.6,3.57,3.57v34.52c0,1.66-.6,3.27-1.7,4.51l-7.59,8.64c-.43.49-.53,1.17-.26,1.77.27.6.85.97,1.51.97h4.47c1.97,0,3.57,1.6,3.57,3.57v34.49c0,1.68-.62,3.3-1.73,4.55l-42.96,48.21c-1.54,1.73-3.76,2.73-6.08,2.73h-62.54c-1.97,0-3.57-1.6-3.57-3.57v-34.68c0-1.68.62-3.3,1.74-4.56l7.52-8.43c.44-.49.55-1.17.28-1.78-.27-.6-.85-.98-1.51-.98h-4.45c-1.97,0-3.57-1.6-3.57-3.57v-34.18c0-2,.73-3.93,2.06-5.42l42.83-48.08c1.3-1.46,3.16-2.29,5.11-2.29h63.32M439.55,446.37h-63.32c-2.24,0-4.37.96-5.86,2.63l-42.83,48.08c-1.49,1.68-2.32,3.84-2.32,6.08v34.18c0,2.53,2.05,4.57,4.57,4.57h4.45c.56,0,.86.67.49,1.09l-7.52,8.43c-1.28,1.44-1.99,3.3-1.99,5.22v34.68c0,2.53,2.05,4.57,4.57,4.57h62.54c2.61,0,5.09-1.11,6.83-3.06l42.96-48.21c1.28-1.44,1.99-3.29,1.99-5.22v-34.49c0-2.53-2.05-4.57-4.57-4.57h-4.47c-.56,0-.86-.66-.49-1.08l7.59-8.64c1.26-1.43,1.95-3.27,1.95-5.17v-34.52c0-2.53-2.05-4.57-4.57-4.57h0Z"/>
      <path class="cls-1" d="M504.49,447.37c1.97,0,3.57,1.6,3.57,3.57v34.52c0,1.66-.6,3.27-1.7,4.51l-7.59,8.64c-.43.49-.54,1.17-.26,1.77.27.6.85.97,1.51.97h4.47c1.97,0,3.57,1.6,3.57,3.57v34.49c0,1.68-.62,3.3-1.73,4.55l-42.96,48.21c-1.54,1.73-3.76,2.73-6.08,2.73h-62.54c-1.97,0-3.57-1.6-3.57-3.57v-34.68c0-1.68.62-3.3,1.74-4.56l7.52-8.43c.44-.49.55-1.17.28-1.78-.27-.6-.85-.98-1.51-.98h-4.45c-1.97,0-3.57-1.6-3.57-3.57v-34.18c0-2,.73-3.93,2.06-5.42l42.83-48.08c1.3-1.46,3.16-2.29,5.11-2.29h63.32M504.49,446.37h-63.32c-2.24,0-4.37.96-5.86,2.63l-42.83,48.08c-1.49,1.68-2.32,3.84-2.32,6.08v34.18c0,2.53,2.05,4.57,4.57,4.57h4.45c.56,0,.86.67.49,1.09l-7.52,8.43c-1.28,1.44-1.99,3.3-1.99,5.22v34.68c0,2.53,2.05,4.57,4.57,4.57h62.54c2.61,0,5.09-1.11,6.83-3.06l42.96-48.21c1.28-1.44,1.99-3.29,1.99-5.22v-34.49c0-2.53-2.05-4.57-4.57-4.57h-4.47c-.56,0-.86-.66-.49-1.08l7.59-8.64c1.26-1.43,1.95-3.27,1.95-5.17v-34.52c0-2.53-2.05-4.57-4.57-4.57h0Z"/>
    </g>
  </g>
</svg>