<?xml version="1.0" encoding="UTF-8"?>
<svg id="Layer_2" data-name="Layer 2" xmlns="http://www.w3.org/2000/svg" viewBox="0 0 353.76 126.5">
  <defs>
    <style>
      .cls-1, .cls-2 {
        fill: #f15625;
      }

      .cls-2 {
        font-family: JosefinSansRoman-Light, 'Josefin Sans';
        font-size: 115.95px;
        font-variation-settings: 'wght' 300;
        font-weight: 300;
      }
    </style>
  </defs>
  <g id="Layer_1-2" data-name="Layer 1">
    <path class="cls-1" d="M351.23,13.72c1.68,1.66,2.53,3.8,2.53,6.42s-.85,4.77-2.56,6.45c-1.71,1.69-3.89,2.53-6.55,2.53s-4.83-.83-6.52-2.49c-1.69-1.66-2.53-3.82-2.53-6.48s.84-4.75,2.53-6.42c1.68-1.66,3.86-2.49,6.52-2.49s4.9.83,6.58,2.49ZM349.97,25.36c1.33-1.31,1.99-3.05,1.99-5.22s-.66-3.91-1.99-5.22c-1.33-1.31-3.1-1.96-5.32-1.96s-3.92.66-5.25,1.99c-1.33,1.33-1.99,3.06-1.99,5.19s.66,3.91,1.99,5.22c1.33,1.31,3.08,1.96,5.25,1.96s3.99-.65,5.32-1.96ZM348.14,20.4c-.38.53-.88.91-1.5,1.13l2.13,3.19h-1.93l-1.93-2.93h-2.06v2.93h-1.53v-9.37h3.92c1.02,0,1.85.3,2.49.9.64.6.96,1.36.96,2.29,0,.71-.19,1.33-.57,1.86ZM346.65,17.31c-.35-.29-.84-.43-1.46-.43h-2.33v3.39h2.33c.62,0,1.11-.15,1.46-.47.35-.31.53-.73.53-1.26s-.18-.94-.53-1.23Z"/>
    <text class="cls-2" transform="translate(95.35 98.68)"><tspan x="0" y="0">scale</tspan></text>
    <path class="cls-1" d="M.3,72.32l5.82-6.52c.28-.31.06-.8-.36-.8h-2.41c-1.85,0-3.35-1.5-3.35-3.35v-24.17L29.94,3.85c.64-.71,1.55-1.12,2.5-1.12h41.68c1.85,0,3.35,1.5,3.35,3.35v22.79c0,.81-.3,1.6-.83,2.21l-5.3,6.04c-.27.31-.05.8.36.8h2.42c1.85,0,3.35,1.5,3.35,3.35v22.77c0,.82-.3,1.62-.85,2.23l-30.22,33.91H1.17c-.65,0-1.17-.52-1.17-1.17v-25.91c0-.29.11-.56.3-.78Z"/>
  </g>
</svg>