<?xml version="1.0" encoding="UTF-8"?>
<svg id="Layer_2" data-name="Layer 2" xmlns="http://www.w3.org/2000/svg" viewBox="0 0 330.6 116.89">
  <defs>
    <style>
      .cls-1 {
        fill: #010101;
      }
    </style>
  </defs>
  <g id="Layer_1-2" data-name="Layer 1">
    <path d="M1.3,68.47l4.9-5.49c.24-.27.05-.71-.32-.71h-2.9c-1.65,0-2.98-1.33-2.98-2.98v-22.28c0-1.46.54-2.87,1.51-3.97L29.42,1.71c.97-1.09,2.36-1.71,3.82-1.71h41.26c1.65,0,2.98,1.33,2.98,2.98v22.49c0,1.24-.45,2.44-1.27,3.37l-4.94,5.63c-.24.28-.05.71.32.71h2.91c1.65,0,2.98,1.33,2.98,2.98v22.47c0,1.25-.46,2.46-1.29,3.4l-28,31.42c-1.13,1.27-2.75,2-4.45,2H2.98c-1.65,0-2.98-1.33-2.98-2.98v-22.6c0-1.26.46-2.47,1.3-3.4Z"/>
    <path d="M328.07,24.89c1.68,1.66,2.53,3.8,2.53,6.42s-.85,4.77-2.56,6.45c-1.71,1.69-3.89,2.53-6.55,2.53s-4.83-.83-6.52-2.49c-1.69-1.66-2.53-3.82-2.53-6.48s.84-4.75,2.53-6.42c1.68-1.66,3.86-2.49,6.52-2.49s4.9.83,6.58,2.49ZM326.81,36.52c1.33-1.31,1.99-3.05,1.99-5.22s-.66-3.91-1.99-5.22c-1.33-1.31-3.1-1.96-5.32-1.96s-3.92.66-5.25,1.99c-1.33,1.33-1.99,3.06-1.99,5.19s.66,3.91,1.99,5.22c1.33,1.31,3.08,1.96,5.25,1.96s3.99-.65,5.32-1.96ZM324.98,31.57c-.38.53-.88.91-1.5,1.13l2.13,3.19h-1.93l-1.93-2.93h-2.06v2.93h-1.53v-9.37h3.92c1.02,0,1.85.3,2.49.9.64.6.96,1.36.96,2.29,0,.71-.19,1.33-.57,1.86ZM323.49,28.48c-.35-.29-.84-.43-1.46-.43h-2.33v3.39h2.33c.62,0,1.11-.15,1.46-.47.35-.31.53-.73.53-1.26s-.18-.94-.53-1.23Z"/>
    <g>
      <path class="cls-1" d="M176.5,107.75c0,1.83-.61,3.36-1.83,4.62-1.22,1.26-2.67,1.87-4.38,1.87s-3.26-.61-4.52-1.87c-.59-.6-1.04-1.26-1.36-1.97-.01-.04-.01-.09-.04-.11-.03-.09-.06-.16-.07-.23-.24-.5-.76-.86-1.36-.86-.56,0-1.06.31-1.3.79-.07.13-.13.27-.16.41h0c-.3.73-.74,1.39-1.32,1.97-1.22,1.26-2.7,1.87-4.46,1.87s-3.17-.61-4.42-1.87c-1.26-1.26-1.89-2.79-1.89-4.62s.63-3.26,1.89-4.52c1.24-1.24,2.72-1.87,4.42-1.87s3.25.63,4.46,1.87c.57.59,1.02,1.24,1.32,1.94.03.17.09.34.19.49.24.44.73.74,1.27.74.57,0,1.07-.33,1.33-.8.06-.11.11-.24.14-.39h0c.31-.73.76-1.39,1.36-1.99,1.26-1.24,2.76-1.87,4.52-1.87s3.16.63,4.38,1.87c1.22,1.26,1.83,2.76,1.83,4.52Z"/>
      <path class="cls-1" d="M311.22,56.79v19.49c0,5.96-1.59,10.77-4.78,14.41-3.17,3.66-7.92,5.49-14.21,5.49-5.15,0-9.34-1.26-12.58-3.76-3.12,2.5-7.21,3.76-12.28,3.76-5.62,0-10.02-1.46-13.2-4.38-3.05,2.25-7.05,3.36-11.98,3.36h-5.74c-2.52,0-4.68-.41-6.51-1.23-1.83-.8-3.32-1.79-4.46-2.93-3.52,2.77-7.68,4.16-12.5,4.16h-33.97c-2.5,0-4.65-.4-6.45-1.17-1.79-.77-3.26-1.72-4.42-2.79-1.62,1.29-3.5,2.26-5.63,2.95-2.13.67-4.55,1.02-7.25,1.02h-5.64c-.89,0-1.74-.07-2.6-.21-.84-.13-1.63-.3-2.37-.5-1.43,6.91-4.5,12.37-9.24,16.4-3.66,3.1-8.05,5-13.2,5.72-1.52.21-3.12.31-4.78.31-1.76,0-3.45-.13-5.06-.39-11.81-2.3-20.96-12.5-22.21-25.14h0c-.1-.97-.14-1.94-.14-2.93,0-9.42,6.01-20.65,10.72-23.6l7.04,7.28c-.13.2-.3.47-.5.82-.89,1.42-1.82,3.36-2.79,5.83-.99,2.47-1.47,5.29-1.47,8.48,0,5.21,1.26,9.32,3.8,12.34,2.53,3,6.08,4.5,10.61,4.5s8.15-1.5,10.65-4.5c2.5-3.02,3.76-7.14,3.76-12.34v-50.03h13.5v38.05c0,1.83.33,3.2.97,4.12.64.92,1.4,1.52,2.29,1.82.87.31,1.64.46,2.33.46h4.62c1.89,0,3.3-.59,4.22-1.77.92-1.19,1.37-2.79,1.37-4.82v-19.78h13.6v19.98c0,1.83.31,3.2.96,4.12.64.92,1.42,1.52,2.29,1.82.89.31,1.66.46,2.33.46h32.46c2.1,0,3.55-.64,4.32-1.93.77-1.27,1.17-2.66,1.17-4.16,0-1.96-.54-3.45-1.63-4.46-1.09-1.02-2.4-1.53-3.96-1.53h-18.58c-2.5,0-4.46-.51-5.89-1.57-1.42-1.04-2.13-2.72-2.13-5.02v-2.75c0-1.34.17-2.6.5-3.75.34-1.16,1.16-2.1,2.45-2.85l26.25-15.57c.27-.13.5-.24.71-.34l4.48,7.06,1.3,2.06-4.62,2.73-.46.27-11.63,6.94h7.91c3.39,0,6.51.71,9.35,2.13,2.83,1.42,5.16,3.5,6.95,6.25,1.79,2.73,2.76,6.11,2.89,10.1v.51c.27,2.63,1,4.28,2.19,4.92,1.19.64,2.32.96,3.4.96h4.72c1.9,0,3.3-.59,4.22-1.77.92-1.19,1.37-2.79,1.37-4.82v-10.93h13.6v11.95c0,4.66,1.86,7.01,5.59,7.01s5.68-2.35,5.68-7.01v-15.6h13.51v15.6c0,4.66,1.86,7.01,5.58,7.01s5.69-2.35,5.69-7.01v-19.29h13.5Z"/>
    </g>
  </g>
</svg>