<?xml version="1.0" encoding="UTF-8"?>
<svg id="Layer_2" data-name="Layer 2" xmlns="http://www.w3.org/2000/svg" viewBox="0 0 353.76 97.45">
  <g id="Layer_1-2" data-name="Layer 1">
    <path d="M1.3,68.47l4.9-5.49c.24-.27.05-.71-.32-.71h-2.9c-1.65,0-2.98-1.33-2.98-2.98v-22.28c0-1.46.54-2.87,1.51-3.97L29.42,1.71c.97-1.09,2.36-1.71,3.82-1.71h41.26c1.65,0,2.98,1.33,2.98,2.98v22.49c0,1.24-.45,2.44-1.27,3.37l-4.94,5.63c-.24.28-.05.71.32.71h2.91c1.65,0,2.98,1.33,2.98,2.98v22.47c0,1.25-.46,2.46-1.29,3.4l-28,31.42c-1.13,1.27-2.75,2-4.45,2H2.98c-1.65,0-2.98-1.33-2.98-2.98v-22.6c0-1.26.46-2.47,1.3-3.4Z"/>
    <path d="M351.23,10.99c1.68,1.66,2.53,3.8,2.53,6.42s-.85,4.77-2.56,6.45c-1.71,1.69-3.89,2.53-6.55,2.53s-4.83-.83-6.52-2.49c-1.69-1.66-2.53-3.82-2.53-6.48s.84-4.75,2.53-6.42c1.68-1.66,3.86-2.49,6.52-2.49s4.9.83,6.58,2.49ZM349.97,22.63c1.33-1.31,1.99-3.05,1.99-5.22s-.66-3.91-1.99-5.22c-1.33-1.31-3.1-1.96-5.32-1.96s-3.92.66-5.25,1.99c-1.33,1.33-1.99,3.06-1.99,5.19s.66,3.91,1.99,5.22c1.33,1.31,3.08,1.96,5.25,1.96s3.99-.65,5.32-1.96ZM348.14,17.67c-.38.53-.88.91-1.5,1.13l2.13,3.19h-1.93l-1.93-2.93h-2.06v2.93h-1.53v-9.37h3.92c1.02,0,1.85.3,2.49.9.64.6.96,1.36.96,2.29,0,.71-.19,1.33-.57,1.86ZM346.65,14.58c-.35-.29-.84-.43-1.46-.43h-2.33v3.39h2.33c.62,0,1.11-.15,1.46-.47.35-.31.53-.73.53-1.26s-.18-.94-.53-1.23Z"/>
    <g>
      <path d="M126.31,56.18c-.81-5.57-3.83-7.54-10.67-7.54-5.68,0-8.93,1.39-8.93,4.75s3.13,4.75,9.28,6.49c6.49,1.85,12.64,3.13,17.04,4.87,6.03,2.44,9.39,6.38,9.39,13.8,0,11.83-8.7,18.9-24.93,18.9-17.51,0-27.25-8.23-27.48-19.83h15.54c0,5.33,4.52,8.46,11.83,8.46,5.33,0,10.09-1.62,10.09-5.91,0-4.06-4.29-5.33-9.16-6.49-9.62-2.32-14.96-3.94-19.02-6.49-5.33-3.36-7.19-7.77-7.19-12.87,0-9.62,6.61-16.93,24-16.93,16.46,0,23.89,6.49,24.7,18.78h-14.49Z"/>
      <path d="M198.09,75.31c-1.62,13.22-12.41,22.15-26.21,22.15-15.54,0-26.21-10.32-26.21-30.73s10.67-29.34,26.67-29.34c14.84,0,24.93,8.46,25.86,21.92h-15.19c-.81-5.91-5.1-9.39-10.78-9.39-6.38,0-11.6,4.06-11.6,16.47s5.22,18.44,11.13,18.44,10.55-3.36,11.13-9.51h15.19Z"/>
      <path d="M238.21,95.95c-.46-1.39-.81-3.36-.93-5.1-3.59,3.94-9.62,6.61-17.28,6.61-12.99,0-19.02-6.38-19.02-15.65,0-16.46,11.02-18.32,26.21-20.41,7.54-1.04,9.62-2.55,9.62-6.49,0-3.71-3.71-5.91-9.62-5.91-6.84,0-9.62,3.36-10.32,8.46h-14.03c.23-11.83,6.73-20.06,25.05-20.06s24.35,8.12,24.35,22.5v36.06h-14.03ZM237.16,68c-1.51,1.51-4.17,2.32-9.74,3.36-8.58,1.62-11.36,4.06-11.36,8.93,0,4.29,2.55,6.38,7.31,6.38,7.77,0,13.57-5.68,13.68-12.41l.12-6.26Z"/>
      <path d="M258.85,95.95V18.03h15.07v77.92h-15.07Z"/>
      <path d="M294.1,71.36c.46,8.58,5.33,14.15,12.75,14.15,4.87,0,9.16-2.44,10.2-6.38h15.54c-3.48,11.71-12.87,18.32-25.05,18.32-19.02,0-28.52-10.44-28.52-31.08,0-17.62,10.09-28.99,27.6-28.99s26.78,11.36,26.78,33.97h-39.31ZM317.87,61.86c-.23-8.46-5.8-12.52-11.71-12.52s-11.02,4.64-11.6,12.52h23.31Z"/>
    </g>
  </g>
</svg>